<?xml version="1.0" standalone="no"?><!DOCTYPE svg PUBLIC "-//W3C//DTD SVG 1.1//EN" "http://www.w3.org/Graphics/SVG/1.1/DTD/svg11.dtd"><svg t="1746162057519" class="icon" viewBox="0 0 1024 1024" version="1.1" xmlns="http://www.w3.org/2000/svg" p-id="12250" xmlns:xlink="http://www.w3.org/1999/xlink" width="400" height="400"><path d="M1024 0H0v1024h1024V0z" fill="#07C3F2" p-id="12251"></path><path d="M960 64H64v896h896V64z" fill="#000000" p-id="12252"></path><path d="M576 768H192v64h384v-64zM588.8 518.4l51.2-57.6c32 25.6 70.4 44.8 115.2 44.8 32 0 57.6-12.8 57.6-38.4 0-19.2-12.8-32-76.8-51.2-76.8-19.2-128-38.4-128-115.2 0-70.4 57.6-115.2 134.4-115.2 57.6 0 102.4 19.2 140.8 51.2l-44.8 64c-32-25.6-70.4-38.4-102.4-38.4s-51.2 12.8-51.2 32c0 25.6 19.2 32 83.2 51.2 83.2 19.2 128 51.2 128 115.2 0 76.8-57.6 121.6-140.8 121.6-57.6 0-115.2-19.2-166.4-64zM307.2 576l64-224 57.6 224h70.4l108.8-384H518.4l-51.2 224-64-224h-64l-64 224L217.6 192H134.4l102.4 384h70.4z" fill="#FFFFFF" p-id="12253"></path></svg>