<?xml version="1.0" standalone="no"?><!DOCTYPE svg PUBLIC "-//W3C//DTD SVG 1.1//EN" "http://www.w3.org/Graphics/SVG/1.1/DTD/svg11.dtd"><svg t="1710325447191" class="icon" viewBox="0 0 1024 1024" version="1.1" xmlns="http://www.w3.org/2000/svg" p-id="9927" xmlns:xlink="http://www.w3.org/1999/xlink" width="400" height="400"><path d="M871.466667 512L789.333333 429.866667l-3.2-3.2c-2.133333-2.133333-5.333333-4.266667-7.466666-6.4l-2.133334-1.066667-91.733333-91.733333 41.6-88.533334c29.866667-65.066667 2.133333-141.866667-62.933333-171.733333-65.066667-32-142.933333-4.266667-172.8 60.8l-1.066667 3.2-40.533333-40.533333c-50.133333-50.133333-131.2-50.133333-181.333334 0l-2.133333 2.133333c-48 50.133333-46.933333 129.066667 2.133333 179.2l80 80-2.133333 1.066667c-19.2 6.4-38.4 17.066667-53.333333 32l-2.133334 2.133333c-41.6 43.733333-45.866667 109.866667-13.866666 158.933333l-2.133334 1.066667c-17.066667 5.333333-34.133333 14.933333-48 28.8-45.866667 45.866667-45.866667 120.533333 0 166.4L434.133333 949.333333c62.933333 62.933333 164.266667 62.933333 226.133334 0l211.2-211.2c62.933333-61.866667 62.933333-163.2 0-226.133333zM549.333333 154.666667c14.933333-33.066667 54.4-46.933333 87.466667-32 33.066667 14.933333 46.933333 54.4 32 87.466666l-32 67.2-98.133333-98.133333 10.666666-24.533333z m277.333334 538.666666L615.466667 904.533333c-37.333333 37.333333-98.133333 37.333333-135.466667 0L272 696.533333c-21.333333-21.333333-21.333333-54.4 0-75.733333 20.266667-20.266667 53.333333-21.333333 73.6-2.133333l3.2 3.2c29.866667 27.733333 73.6-17.066667 43.733333-46.933334l-55.466666-55.466666c-24.533333-24.533333-24.533333-65.066667 0-90.666667 22.4-22.4 57.6-24.533333 83.2-6.4l1.066666 1.066667c32 21.333333 67.2-22.4 39.466667-49.066667L312.533333 226.133333c-24.533333-24.533333-24.533333-65.066667 0-90.666666s65.066667-24.533333 90.666667 0l328.533333 328.533333 3.2 3.2 3.2 2.133333c2.133333 1.066667 4.266667 3.2 5.333334 5.333334l83.2 83.2c37.333333 37.333333 37.333333 98.133333 0 135.466666z" p-id="9928" fill="#000000"></path></svg>